<svg class="injected-svg" id="svg-08cb9fe6-5130-486a-b243-3895174c0204" xmlns="http://www.w3.org/2000/svg" width="150px" height="80px" viewBox="0 0 1300 800"><g xmlns="http://www.w3.org/2000/svg" fill="#000000" id="shape-svg"><title>forma</title><g id="Слой_2" data-name="Слой 2"><g id="Слой_1-2" data-name="Слой 1"><g id="_b45851ff" data-name="#b45851ff"><path d="M74.78,2.23a7.88,7.88,0,0,1,1.44-2A9.91,9.91,0,0,1,78.77,0c3,.06,6,0,9,0H220q3,0,6,0a10.37,10.37,0,0,1,2.55.19,13.88,13.88,0,0,1,2.28,3.5Q238,16.11,245.19,28.53a24,24,0,0,1,2.34,4.39,23.23,23.23,0,0,1-3.38,2.14,25.16,25.16,0,0,1-3.35,1.81,22.28,22.28,0,0,1-1.9-3.09c-4.67-8.16-9.43-16.26-14.06-24.44-.32-.46-.6-1.09-1.23-1.16a34.21,34.21,0,0,0-5-.1H89.82q-3.19,0-6.37,0a9.84,9.84,0,0,0-2.54.2,7.56,7.56,0,0,0-1.44,2c-1.29,2.36-2.67,4.68-4,7q-29,50.16-57.94,100.35c-2.49,4.22-4.83,8.52-7.38,12.71a6.81,6.81,0,0,0-.8,1.73,5.72,5.72,0,0,0,.94,2.2c1.49,2.44,2.88,4.93,4.31,7.4q31.78,55,63.57,110.11c.91,1.45,1.51,3.13,2.75,4.35a28.4,28.4,0,0,0,5.22.16H218.65a28.65,28.65,0,0,0,5.24-.16,12.44,12.44,0,0,0,2.15-3.27q6.12-10.6,12.24-21.21a22.55,22.55,0,0,1,2.17-3.51,20,20,0,0,1,3.22,1.66,18.73,18.73,0,0,1,3.53,2.29,27.62,27.62,0,0,1-2.14,4q-7,12.11-14,24.18c-.81,1.32-1.34,2.89-2.52,3.94a10.88,10.88,0,0,1-2.55.19c-3.13-.06-6.26,0-9.38,0H88.14c-3.12,0-6.25,0-9.37,0a10.38,10.38,0,0,1-2.55-.2,17.6,17.6,0,0,1-2.38-3.76q-35-60.55-69.93-121.13c-1-1.76-2-3.53-3.1-5.27A5.11,5.11,0,0,1,0,132.08a6.87,6.87,0,0,1,.81-1.71c2-3.27,3.82-6.67,5.79-10Q38.49,65.14,70.41,9.89C71.85,7.32,73.39,4.82,74.78,2.23Z" transform="translate(60, 190) scale(1.7,1.7)"></path></g></g></g></g><g xmlns="http://www.w3.org/2000/svg" fill="#000000" id="icon-svg">
	<path transform="translate(115, 230) scale(1.7,1.7)" d="M 86 29.535 C 52.436 36.643, 28.702 65.625, 28.706 99.500 C 28.707 111.857, 30.776 120.892, 36.055 131.583 C 45.446 150.605, 62.115 164.124, 83 169.654 C 91.058 171.787, 108.358 172.019, 115.928 170.095 C 155.557 160.021, 179.531 120.712, 169.546 82.179 C 160.008 45.367, 122.587 21.788, 86 29.535 M 88.435 41.167 C 84.416 44.871, 77 57.568, 77 60.744 C 77 61.829, 79.726 62.456, 89.250 63.562 L 95 64.230 95 50.615 C 95 42.007, 94.624 37, 93.978 37 C 93.415 37, 90.921 38.875, 88.435 41.167 M 103 50.580 L 103 64.159 109.750 63.519 C 119.404 62.603, 122 61.999, 121.999 60.671 C 121.998 58.881, 116.420 47.487, 113.829 43.983 C 111.490 40.819, 106.186 37, 104.132 37 C 103.345 37, 103 41.138, 103 50.580 M 71.366 42.966 C 67.040 45.148, 61.475 48.707, 59 50.876 L 54.500 54.820 59.040 56.784 C 61.537 57.865, 64.915 59.042, 66.546 59.400 C 69.363 60.019, 69.598 59.811, 71.214 55.276 C 72.150 52.649, 74.477 47.913, 76.385 44.750 C 78.293 41.587, 79.714 39, 79.543 39 C 79.372 39, 75.692 40.785, 71.366 42.966 M 120 39.966 C 120 40.470, 120.414 41.138, 120.920 41.450 C 122.232 42.262, 126.476 50.060, 128.527 55.430 C 129.486 57.944, 130.590 60, 130.979 60 C 132.393 60, 143.468 55.932, 144.289 55.111 C 144.752 54.648, 143.281 52.685, 141.020 50.749 C 134.866 45.482, 120 37.855, 120 39.966 M 47.040 63.943 C 43.381 69.082, 39.010 79.457, 37.499 86.588 C 35.100 97.913, 34.057 97, 49.399 97 L 62.797 97 63.495 89.750 C 63.878 85.763, 64.818 79.156, 65.582 75.070 C 66.347 70.983, 66.866 67.585, 66.736 67.518 C 66.606 67.451, 63.800 66.579, 60.500 65.581 C 57.200 64.582, 53.291 63.146, 51.813 62.389 C 49.286 61.096, 49.002 61.188, 47.040 63.943 M 143.500 64.128 C 139.650 65.664, 135.713 66.939, 134.750 66.960 C 132.637 67.008, 132.646 66.649, 134.500 76.338 C 135.325 80.649, 136.006 86.049, 136.014 88.338 C 136.043 97.322, 135.496 97, 150.732 97 L 164.230 97 163.517 91.286 C 162.366 82.079, 155.475 65.127, 151.718 62.264 C 150.921 61.656, 148.082 62.300, 143.500 64.128 M 74.042 72.908 C 73.094 76.491, 71 91.856, 71 95.224 C 71 96.827, 72.171 97, 83 97 L 95 97 95 84 L 95 71 89.750 70.940 C 86.862 70.908, 82.361 70.529, 79.746 70.098 L 74.992 69.316 74.042 72.908 M 118 70.534 C 117.175 70.724, 113.463 71.168, 109.750 71.519 L 103 72.159 103 84.580 L 103 97 116.061 97 L 129.121 97 128.443 89.750 C 128.070 85.763, 127.237 79.800, 126.593 76.500 C 125.488 70.841, 125.253 70.491, 122.461 70.344 C 120.832 70.258, 118.825 70.343, 118 70.534 M 36.652 108.750 C 37.952 118.019, 42.227 129.203, 47.123 136.147 L 48.989 138.794 56.245 135.931 C 60.235 134.357, 64.287 133.053, 65.250 133.034 C 67.363 132.993, 67.354 133.351, 65.500 123.662 C 64.675 119.351, 64 113.389, 64 110.412 L 64 105 50.063 105 L 36.126 105 36.652 108.750 M 71.548 110.250 C 72.315 116.782, 73.949 126.972, 74.570 129.095 C 74.960 130.429, 75.892 130.560, 80.268 129.893 C 83.146 129.454, 87.638 128.821, 90.250 128.486 L 95 127.877 95 116.439 L 95 105 82.966 105 L 70.931 105 71.548 110.250 M 103 117 L 103 129 109.750 129.044 C 113.463 129.068, 118.411 129.457, 120.748 129.909 L 124.995 130.731 125.933 127.115 C 126.449 125.127, 127.125 121.362, 127.435 118.750 C 127.746 116.138, 128.253 111.975, 128.561 109.500 L 129.123 105 116.061 105 L 103 105 103 117 M 136.667 105.667 C 136.300 106.033, 135.984 108.621, 135.965 111.417 C 135.946 114.213, 135.280 120.100, 134.485 124.500 C 133.690 128.900, 133.030 132.613, 133.020 132.750 C 133.009 132.887, 133.787 133.015, 134.750 133.034 C 135.713 133.053, 139.791 134.367, 143.814 135.954 L 151.128 138.839 154.430 133.670 C 158.258 127.678, 162.430 116.588, 163.429 109.750 L 164.123 105 150.728 105 C 143.361 105, 137.033 105.300, 136.667 105.667 M 88 136.650 C 86.625 136.857, 83.588 137.273, 81.250 137.575 C 78.702 137.903, 77 138.645, 77 139.427 C 77 140.144, 78.580 143.889, 80.510 147.748 C 83.765 154.253, 91.488 163, 93.978 163 C 94.624 163, 95 158.030, 95 149.500 C 95 134.483, 95.559 135.509, 88 136.650 M 103 149.500 C 103 156.925, 103.338 162.998, 103.750 162.996 C 105.528 162.987, 110.971 158.904, 113.332 155.810 C 116.330 151.878, 122.469 139.135, 121.723 138.390 C 121.096 137.763, 109.536 136.048, 105.750 136.020 L 103 136 103 149.500 M 62.056 142.030 C 59.062 143.106, 56.205 144.395, 55.708 144.892 C 54.001 146.599, 66.162 155.135, 76.340 159.374 L 80.179 160.973 78.014 157.736 C 75.490 153.965, 70 142.514, 70 141.022 C 70 139.574, 68.277 139.793, 62.056 142.030 M 128.777 144.750 C 127.846 147.363, 125.523 152.088, 123.615 155.250 C 121.707 158.412, 120.417 161, 120.748 161 C 121.080 161, 124.534 159.423, 128.425 157.495 C 136.275 153.607, 145.598 146.198, 144.289 144.889 C 143.501 144.101, 132.419 140, 131.078 140 C 130.743 140, 129.708 142.137, 128.777 144.750" stroke="none" fill-rule="evenodd"></path>
</g><path xmlns="http://www.w3.org/2000/svg" id="SvgjsPath103974916" d="M7.00 0L0 0L15.40-49.00L22.40-49.00L37.80 0L30.80 0L26.95-11.90L10.85-11.90L7.00 0ZM18.90-38.15L12.60-18.20L25.20-18.20L18.90-38.15ZM68.25-49.00L74.90-49.00L74.90 0L68.25 0L50.75-34.30L50.75 0L44.10 0L44.10-42.35L38.50-42.35L38.50-49.00L50.75-49.00L68.25-14.70L68.25-49.00ZM103.95 0L91.56 0L82.60 0L82.60-6.65L88.20-6.65L88.20-42.35L82.60-42.35L82.60-49.00L103.25-49.00Q106.12-49.00 108.61-47.95Q111.09-46.90 112.95-45.05Q114.80-43.19 115.85-40.71Q116.90-38.22 116.90-35.35L116.90-35.35Q116.90-32.83 116.03-31.08Q115.15-29.33 114.10-28.14L114.10-28.14Q112.84-26.81 111.30-25.90L111.30-25.90Q113.26-24.85 114.80-23.17L114.80-23.17Q116.13-21.77 117.22-19.57Q118.30-17.36 118.30-14.35L118.30-14.35Q118.30-11.34 117.18-8.72Q116.06-6.09 114.14-4.17Q112.21-2.24 109.59-1.12Q106.96 0 103.95 0L103.95 0ZM94.85-42.35L94.85-28.35L103.25-28.35Q106.40-28.35 108.33-30.28Q110.25-32.20 110.25-35.35L110.25-35.35Q110.25-38.50 108.33-40.43Q106.40-42.35 103.25-42.35L103.25-42.35L94.85-42.35ZM94.85-22.05L94.85-6.65L103.95-6.65Q107.38-6.65 109.52-8.79Q111.65-10.92 111.65-14.35L111.65-14.35Q111.65-17.78 109.52-19.92Q107.38-22.05 103.95-22.05L103.95-22.05L94.85-22.05ZM126.70-15.40L126.70-33.60Q126.70-37.03 127.93-39.97Q129.15-42.91 131.32-45.08Q133.49-47.25 136.43-48.48Q139.37-49.70 142.80-49.70L142.80-49.70Q146.23-49.70 149.17-48.48Q152.11-47.25 154.28-45.08Q156.45-42.91 157.68-39.97Q158.90-37.03 158.90-33.60L158.90-33.60L158.90-15.40Q158.90-11.97 157.68-9.03Q156.45-6.09 154.28-3.92Q152.11-1.75 149.17-0.53Q146.23 0.70 142.80 0.70L142.80 0.70Q139.37 0.70 136.43-0.53Q133.49-1.75 131.32-3.92Q129.15-6.09 127.93-9.03Q126.70-11.97 126.70-15.40L126.70-15.40ZM152.25-15.40L152.25-33.60Q152.25-35.56 151.52-37.28Q150.78-38.99 149.49-40.29Q148.19-41.58 146.48-42.32Q144.76-43.05 142.80-43.05L142.80-43.05Q140.84-43.05 139.13-42.32Q137.41-41.58 136.12-40.29Q134.82-38.99 134.09-37.28Q133.35-35.56 133.35-33.60L133.35-33.60L133.35-15.40Q133.35-13.44 134.09-11.73Q134.82-10.01 136.12-8.72Q137.41-7.42 139.13-6.69Q140.84-5.95 142.80-5.95L142.80-5.95Q144.76-5.95 146.48-6.69Q148.19-7.42 149.49-8.72Q150.78-10.01 151.52-11.73Q152.25-13.44 152.25-15.40L152.25-15.40ZM198.80-12.60L198.80 0L170.10 0L170.10-49.00L176.75-49.00L176.75-6.65L192.15-6.65L192.15-12.60L198.80-12.60ZM235.20-12.60L235.20 0L206.50 0L206.50-49.00L213.15-49.00L213.15-6.65L228.55-6.65L228.55-12.60L235.20-12.60Z" fill="#000000" fontsize="70" transform="translate(430,490) scale(3,3)"></path></svg>