<?xml version="1.0" encoding="utf-8"?>
<!-- Generator: Adobe Illustrator 27.2.0, SVG Export Plug-In . SVG Version: 6.00 Build 0)  -->
<svg version="1.1" id="Layer_1" xmlns="http://www.w3.org/2000/svg" xmlns:xlink="http://www.w3.org/1999/xlink" x="0px" y="0px"
	 viewBox="0 0 100 100" style="enable-background:new 0 0 100 100;" xml:space="preserve">
<style type="text/css">
	.st0{fill-rule:evenodd;clip-rule:evenodd;fill:#932973;}
	.st1{fill-rule:evenodd;clip-rule:evenodd;fill:#FFDD00;}
	.st2{fill-rule:evenodd;clip-rule:evenodd;fill:#EC1C24;}
	.st3{fill-rule:evenodd;clip-rule:evenodd;fill:#5D2684;}
	.st4{fill-rule:evenodd;clip-rule:evenodd;fill:#EB008B;}
	.st5{fill-rule:evenodd;clip-rule:evenodd;fill:#00ADE5;}
	.st6{fill-rule:evenodd;clip-rule:evenodd;fill:#58A947;}
	.st7{fill:#FFFFFF;}
	.st8{fill-rule:evenodd;clip-rule:evenodd;fill:#F9FCFF;}
	.st9{fill:#932973;}
</style>
<polygon class="st0" points="50.6,86.5 79.7,72 86.9,39.2 66.7,12.9 34.4,12.9 14.3,39.2 21.5,72 "/>
<path class="st1" d="M51.3,25.6L51.3,25.6c-6.2,0.6-12.9,2.1-18.9,4.7c-5.7,0.4-11.4,1.1-16.9,2.1c0,0,0,0-0.1,0.1
	c0.5-1.2,1.1-2.3,1.9-3.3C28.6,26.3,39.7,25.6,51.3,25.6L51.3,25.6z M85.8,53.3c-0.1,0.9-1.5,2.8-1.8,3.3l-0.1,0.1
	c-10.6,2.7-21.7,3.6-32.6,3.6C57,59.6,63,58,68.5,55.6c5.8-0.4,11.5-1.1,17.2-2.2C85.7,53.4,85.8,53.3,85.8,53.3L85.8,53.3z"/>
<path class="st2" d="M32.3,30.3c-6.7,2.8-12.4,7-15.2,12.6c-1.5-3-2.2-6.4-1.8-10.3c0-0.1,0-0.2,0.1-0.2
	C20.9,31.4,26.6,30.7,32.3,30.3L32.3,30.3z M85.9,53.3c-0.1,0.1-0.1,0.1-0.2,0.2c-5.7,1-11.4,1.7-17.2,2.2c6.7-3,12.4-7.2,15.4-12.7
	C85.6,46,86.3,49.5,85.9,53.3L85.9,53.3z"/>
<path class="st3" d="M32.3,55.6c-6.7-2.8-12.4-7-15.2-12.6c-1.5,3-2.2,6.4-1.8,10.3c0,0.1,0,0.2,0.1,0.2
	C20.9,54.4,26.6,55.1,32.3,55.6L32.3,55.6z M68.5,30.2c5.8,0.4,11.5,1.1,17.2,2.2c0.1,0.1,0.1,0.1,0.2,0.2c0.5,3.8-0.3,7.3-2,10.4
	C80.9,37.5,75.2,33.2,68.5,30.2L68.5,30.2z"/>
<path class="st4" d="M17.1,42.9c-1.5,3-2.2,6.4-1.8,10.3c-2.4-5.9-2.4-14.7,0-20.6C14.9,36.5,15.6,39.9,17.1,42.9L17.1,42.9z
	 M85.8,32.5c1,1.8,1.9,6.1,1.9,10.7c0,5.1-1.6,9.8-1.9,10c0.5-3.8-0.3-7.3-2-10.4C85.6,39.8,86.3,36.4,85.8,32.5L85.8,32.5z"/>
<path class="st5" d="M51.3,60.2c-6.2-0.6-13-2.1-19-4.7c-5.7-0.4-11.4-1.1-16.9-2.1l-0.1-0.1l0,0.1c0.5,1.1,1.1,2.3,1.9,3.2
	C28.6,59.5,39.7,60.2,51.3,60.2L51.3,60.2z M85.8,32.5c-0.1-0.8-1.4-2.7-1.9-3.4c-10.9-2.8-21.5-3.6-32.7-3.6
	c5.7,0.7,11.8,2.2,17.2,4.7c5.8,0.4,11.5,1.1,17.2,2.2C85.7,32.4,85.8,32.5,85.8,32.5L85.8,32.5z"/>
<path class="st6" d="M51.5,60.2c5.7-0.7,11.8-2.2,17.2-4.7c-11.9,0.9-24.3,0.9-36.2,0C38.5,58.1,45.3,59.6,51.5,60.2L51.5,60.2
	L51.5,60.2z M51.5,25.6c5.7,0.7,11.8,2.2,17.2,4.7l0,0c-11.6-0.8-24.6-0.8-36.2,0l0,0C38.5,27.7,45.3,26.2,51.5,25.6L51.5,25.6
	L51.5,25.6z"/>
<path class="st0" d="M32.4,55.6c11.9,0.9,24.3,0.9,36.2,0c6.7-3,12.4-7.2,15.4-12.7c-2.9-5.4-8.7-9.7-15.4-12.7
	c-11.6-0.8-24.5-0.8-36.2,0c0,0,0,0,0,0c-6.7,2.8-12.4,7-15.2,12.6C20,48.6,25.7,52.7,32.4,55.6C32.4,55.6,32.4,55.6,32.4,55.6
	L32.4,55.6z"/>
<path class="st7" d="M29.6,37.8c3.8,0,5.3,2.3,4.6,7h-7.4c0,1.6,1.2,2.4,3.7,2.4c1.1,0,2.3-0.1,3.4-0.3v2.3c-1,0.2-2.3,0.3-3.9,0.3
	c-4.1,0-6.2-2-6.2-6C23.9,39.7,25.8,37.8,29.6,37.8L29.6,37.8z M14,33.6v2.5h4.4v13.3h2.9V36.1h4.4v-2.5H14L14,33.6z M82.2,35.9h2.1
	l0.4,1.9h2.7l0.2,2.3H85v5.4c0,1.1,0.5,1.6,1.4,1.6h1.2l-0.2,2.3H85c-1.9,0-2.8-1-2.8-3.1L82.2,35.9L82.2,35.9z M73,49.5V37.8h2.2
	l0.4,1.5c1.5-1.1,2.9-1.6,4.7-1.5v2.3c-1,0-2.7-0.2-4.4,1.5v7.8L73,49.5L73,49.5z M60.4,45.8c0-2.4,1.6-3.6,4.9-3.6
	c1,0,1.9,0.1,2.6,0.2v-0.8c0-2.4-5.2-1.4-6.6-1v-2.3c3.1-0.9,9.5-1.2,9.5,3.3v7.8h-1.4l-1.2-0.8c-1,0.5-2,0.8-3.1,0.8
	C61.9,49.5,60.4,48.3,60.4,45.8L60.4,45.8z M67.9,44.7c-0.7-0.1-1.6-0.2-2.6-0.2c-1.4,0-2.1,0.4-2.1,1.3c0,0.9,0.6,1.3,1.7,1.3
	c1.2,0,2.2-0.3,3-0.9V44.7L67.9,44.7z M47.9,49.5V33.6h2.9v5.5c1.2-0.8,2.5-1.3,3.8-1.3c2.6,0,3.9,1.4,3.9,4.3v7.3h-2.9v-7.3
	c0-1.3-0.6-1.9-1.9-1.9c-1,0-2,0.5-3,1.5v7.8L47.9,49.5L47.9,49.5z M45.6,46.8c-0.9,0.2-1.9,0.3-2.9,0.3c-2.4,0-3.6-1.2-3.6-3.7
	c0-2.2,1.2-3.3,3.6-3.3c1,0,2,0.1,2.9,0.3v-2.3c-0.9-0.2-2-0.3-3.1-0.3c-4.2,0-6.2,1.9-6.2,5.6c0,4,2.1,6,6.2,6
	c1.2,0,2.2-0.1,3.1-0.3V46.8L45.6,46.8z M26.8,42.6h4.7c0.1-1.7-0.7-2.5-2.3-2.5C27.7,40.1,26.9,41,26.8,42.6L26.8,42.6z"/>
<path class="st8" d="M28.2,68.8c-1.5-0.7-2.6-0.5-4.8-0.1c0,0,2.3,3.2,6.5,1.5c0.6,0.4,1.2,0.8,1.8,1.2c-1.4,0-2.6,0.3-4.1,1.3
	c0,0,3.6,2.3,6.5-0.2c0.9,0.3,1.8,0.5,2.7,0.5c-2,0.5-3.4,1.2-4.7,3.2c4.1,0.8,5.9-1.7,6.3-4.2c-2.3,0-4.3-0.6-5.9-1.3
	c1.2-4.8-3.2-6.6-3.2-6.6c-0.3,2.7,0.4,4.1,1.5,5.7c-1.5-0.9-2.6-1.9-3.4-2.7c-0.6-3.1-1.9-4-4.5-5.4c0,0-0.4,4.9,3.9,5.7
	C27.2,67.8,27.7,68.3,28.2,68.8L28.2,68.8z M50.6,82.9l0.8-1.5l1.6-0.3l-1.1-1.2l0.2-1.7l-1.5,0.7l-1.5-0.7l0.2,1.7l-1.1,1.2
	l1.6,0.3L50.6,82.9L50.6,82.9z M72.7,69.2c1.5-0.7,2.6-0.5,4.9-0.2c0,0-2.3,3.2-6.5,1.5c-0.5,0.4-1.1,0.8-1.7,1.2
	c1.3,0,2.5,0.3,4,1.3c0,0-3.5,2.3-6.4-0.1c-0.8,0.3-1.6,0.5-2.4,0.6c1.7,0.5,3,1.2,4.3,3c-3.6,0.7-5.7-1.4-6.4-4.1
	c2.3,0,4.4-0.6,6.1-1.4c-1.2-4.8,3.2-6.6,3.2-6.6c0.3,2.7-0.4,4.2-1.6,5.7c1.5-0.9,2.7-1.9,3.4-2.7c0.6-3.1,1.9-4,4.5-5.4
	c0,0,0.4,5-4,5.7C73.7,68.2,73.2,68.7,72.7,69.2L72.7,69.2z M44,80l0.8-1.5l1.6-0.3L45.3,77l0.2-1.7L44,76l-1.5-0.7l0.2,1.7
	l-1.1,1.2l1.6,0.3L44,80L44,80z M57.9,80.5l0.8-1.5l1.6-0.3l-1.1-1.2l0.2-1.7l-1.5,0.7l-1.5-0.7l0.2,1.7l-1.1,1.2l1.6,0.3L57.9,80.5
	L57.9,80.5z"/>
<g>
	<path class="st7" d="M34.5,21.9l-0.4-4.3l1-0.1l0.1,1.7l0.3,0c0.2,0,0.3-0.1,0.4-0.1c0.1-0.1,0.2-0.2,0.2-0.4l0.3-1.2l1-0.1
		l-0.3,1.3c0,0.2-0.1,0.4-0.2,0.6c-0.1,0.1-0.2,0.3-0.3,0.3c0.2,0,0.3,0.1,0.4,0.3c0.1,0.1,0.2,0.3,0.3,0.5l0.5,1.3l-1.1,0.1
		l-0.4-1.2c-0.1-0.2-0.2-0.3-0.3-0.4S35.9,20,35.7,20l-0.3,0l0.1,1.7L34.5,21.9L34.5,21.9z"/>
	<path class="st7" d="M42.1,18.4c0-0.2-0.1-0.4-0.2-0.6c-0.1-0.2-0.2-0.3-0.4-0.4c-0.2-0.1-0.4-0.2-0.6-0.2c-0.2,0-0.4-0.1-0.6-0.1
		c-0.2,0-0.4,0.1-0.6,0.1s-0.4,0.2-0.5,0.3c-0.2,0.1-0.3,0.3-0.4,0.4s-0.1,0.4-0.1,0.6l0.1,1.6c0,0.2,0.1,0.4,0.2,0.6
		c0.1,0.2,0.2,0.3,0.4,0.4c0.2,0.1,0.3,0.2,0.6,0.2c0.2,0,0.4,0.1,0.6,0s0.4-0.1,0.6-0.1c0.2-0.1,0.4-0.2,0.5-0.3
		c0.1-0.1,0.3-0.3,0.3-0.5c0.1-0.2,0.1-0.4,0.1-0.6L42.1,18.4z M41.2,20.1c0,0.1-0.1,0.2-0.1,0.2s-0.1,0.1-0.2,0.1
		c-0.1,0-0.2,0-0.2,0.1c-0.1,0-0.2,0-0.2,0s-0.2-0.1-0.2-0.1s-0.1-0.1-0.2-0.2c0-0.1-0.1-0.2-0.1-0.3l-0.1-1.2c0-0.1,0-0.2,0-0.3
		c0-0.1,0.1-0.2,0.2-0.2c0.1-0.1,0.1-0.1,0.2-0.1c0.1,0,0.2,0,0.2-0.1c0.1,0,0.2,0,0.2,0c0.1,0,0.2,0.1,0.2,0.1
		c0.1,0,0.1,0.1,0.2,0.2s0.1,0.2,0.1,0.3l0.1,1.2C41.2,20,41.2,20.1,41.2,20.1z"/>
	<polygon class="st7" points="46.7,19.2 46.3,19.9 46,20.6 45.3,20.6 44.9,20 44.5,19.2 44.4,19.2 44.5,21.2 43.5,21.3 43.4,17 
		44.3,16.9 45,18.3 45.6,19.3 45.6,19.3 46.1,18.2 46.8,16.9 47.7,16.8 47.8,21.1 46.8,21.2 46.7,19.2 	"/>
	<path class="st7" d="M51.2,16.8l-1,0l-1.5,4.3h1.1l0.3-0.9l1.4,0l0.3,0.9h1.1L51.2,16.8z M50.2,19.5l0.1-0.3l0.3-1.2h0l0.3,1.2
		l0.1,0.3L50.2,19.5z"/>
	<polygon class="st7" points="56,21.2 56,19.5 54.6,19.4 54.6,21.2 53.6,21.1 53.7,16.8 54.7,16.9 54.7,18.5 56,18.6 56.1,16.9 
		57.1,16.9 57,21.2 	"/>
	<path class="st7" d="M61.9,20.6l0.2-3.4l-3-0.1l-0.2,1.8c0,0.2-0.1,0.4-0.1,0.6c0,0.2-0.1,0.3-0.1,0.4c0,0.1-0.1,0.2-0.2,0.3
		c-0.1,0.1-0.2,0.2-0.3,0.2l-0.3,0l-0.1,1.9l0.9,0l0-1l2.6,0.1l0,1l0.9,0l0.1-1.9L61.9,20.6z M60.9,20.5l-1.5-0.1
		c0.1-0.1,0.1-0.2,0.2-0.4c0.1-0.1,0.1-0.3,0.1-0.4c0-0.1,0.1-0.3,0.1-0.4s0-0.3,0-0.4l0.1-0.9l1.1,0.1L60.9,20.5z"/>
	<path class="st7" d="M65.8,17.4l-1-0.1L63,21.5l1.1,0.1l0.3-0.8l1.4,0.1l0.2,0.9l1.1,0.1L65.8,17.4z M64.7,20l0.1-0.3l0.4-1.2l0,0
		l0.3,1.2l0.1,0.3L64.7,20z"/>
</g>
<g>
	<path class="st0" d="M39.4,59.4h-2.4l-3.9,2.3l0.9,1.7l2.2-1.1c0,2.3,0,4.6,0,6.9c0,0.2,0,0.6-0.5,0.6h-1.6v1.9h7.3v-1.9h-1.5
		c-0.5,0-0.4-0.4-0.4-0.6C39.4,66,39.4,62.7,39.4,59.4L39.4,59.4z"/>
	<path class="st8" d="M36.9,59.4h2.4v9.9c0,0.2-0.1,0.6,0.4,0.6h1.5v1v0.9h-1.2h-5.5h-0.6v-0.9v-1h1.6c0.5,0,0.5-0.4,0.5-0.6v-6.9
		L34,63.5l-0.9-1.7L36.9,59.4L36.9,59.4z M31.8,62.4L31.8,62.4L31.8,62.4z M40.8,68.4v-9c0-0.8-0.6-1.4-1.4-1.4h-2.4
		c-0.3,0-0.6,0.1-0.9,0.3l-3.7,2.3c-0.7,0.4-0.9,1.2-0.5,1.9l0.9,1.7c0.4,0.7,1.2,1,1.9,0.6l0.1,0v3.7h-0.7c-0.8,0-1.4,0.6-1.4,1.4
		v0.8v0.9v0.2c0,0.1,0,0.2,0,0.3c0.1,0.6,0.6,1,1.2,1.1c0.1,0,0.1,0,0.2,0h7h0.3c0.6,0,1.2-0.4,1.4-0.9c0.1-0.2,0.1-0.3,0.1-0.5
		v-0.2v-1v-0.7c0-0.8-0.6-1.4-1.4-1.4L40.8,68.4L40.8,68.4z"/>
	<g>
		<g>
			<polygon class="st9" points="53.4,64.5 50.7,64.5 50.7,66.8 47.4,66.8 52.8,59.3 49.8,59.3 44,67.2 44,69.1 50.6,69.1 50.6,71.7 
				53.4,71.7 53.4,69.1 55.4,69.1 55.4,66.8 53.4,66.8 			"/>
			<path class="st7" d="M52.8,59.3l-5.4,7.4h3.3v-2.3h2.7v2.3h2v2.3h-2v2.6h-2.8v-2.6H44v-1.9l5.8-7.8H52.8 M52.8,57.9h-3
				c-0.5,0-0.9,0.2-1.2,0.6l-5.8,7.8c-0.2,0.2-0.3,0.5-0.3,0.9v1.9c0,0.8,0.6,1.4,1.4,1.4h5.2v1.2c0,0.8,0.6,1.4,1.4,1.4h2.8
				c0.8,0,1.4-0.6,1.4-1.4v-1.2h0.6c0.8,0,1.4-0.6,1.4-1.4v-2.3c0-0.8-0.6-1.4-1.4-1.4h-0.6v-0.9c0-0.8-0.6-1.4-1.4-1.4h-1.5
				l2.1-2.8c0.3-0.4,0.4-1,0.1-1.5C53.8,58.2,53.3,57.9,52.8,57.9L52.8,57.9z M52.8,60.8L52.8,60.8L52.8,60.8L52.8,60.8z"/>
		</g>
		<g>
			<path class="st9" d="M61.9,69.4l2.8-2.7c0.6-0.5,1-1,1.3-1.5c0.3-0.4,0.5-0.8,0.6-1.2c0.1-0.4,0.1-0.8,0.1-1.2
				c0-0.8-0.2-1.4-0.6-1.9c-0.4-0.5-0.9-1-1.6-1.3c-0.7-0.3-1.5-0.5-2.4-0.5c-1.1,0-2.1,0.2-2.9,0.6c-0.8,0.4-1.5,1-2,1.7l2.1,1.3
				c0.3-0.4,0.7-0.7,1.1-0.9c0.4-0.2,0.9-0.3,1.4-0.3c0.6,0,1.1,0.1,1.5,0.4c0.3,0.3,0.5,0.6,0.5,1.1c0,0.2,0,0.4-0.1,0.6
				c-0.1,0.2-0.2,0.5-0.4,0.7c-0.2,0.3-0.5,0.6-0.8,0.9l-4.8,4.5v1.9h9.3v-2.3H61.9z"/>
			<path class="st7" d="M62.2,59.1c0.9,0,1.7,0.2,2.4,0.5c0.7,0.3,1.2,0.7,1.6,1.3c0.4,0.5,0.6,1.2,0.6,1.9c0,0.4-0.1,0.8-0.1,1.2
				c-0.1,0.4-0.3,0.8-0.6,1.2c-0.3,0.4-0.7,0.9-1.3,1.5l-2.8,2.7h5.3v2.3h-9.3v-1.9l4.8-4.5c0.4-0.3,0.7-0.6,0.8-0.9
				c0.2-0.3,0.3-0.5,0.4-0.7c0.1-0.2,0.1-0.4,0.1-0.6c0-0.5-0.2-0.9-0.5-1.1c-0.3-0.3-0.8-0.4-1.5-0.4c-0.5,0-1,0.1-1.4,0.3
				c-0.4,0.2-0.8,0.5-1.1,0.9l-2.1-1.3c0.5-0.7,1.1-1.3,2-1.7C60.1,59.3,61.1,59.1,62.2,59.1 M62.2,57.7c-1.3,0-2.5,0.3-3.6,0.8
				c-1.1,0.5-1.9,1.3-2.5,2.2c-0.2,0.3-0.3,0.7-0.2,1.1c0.1,0.4,0.3,0.7,0.6,0.9l2.1,1.3c0.2,0.2,0.5,0.2,0.8,0.2
				c0.4,0,0.9-0.2,1.2-0.6c0.2-0.2,0.3-0.4,0.6-0.5C61.4,63,61.6,63,62,63c0.3,0,0.5,0,0.5,0.1c0,0,0,0,0,0c0,0,0,0.1,0,0.2
				c0,0,0,0.1-0.2,0.4c-0.1,0.1-0.2,0.3-0.6,0.6l-4.8,4.5c-0.3,0.3-0.4,0.6-0.4,1v1.9c0,0.8,0.6,1.4,1.4,1.4h9.3
				c0.8,0,1.4-0.6,1.4-1.4v-2.3c0-0.8-0.6-1.4-1.4-1.4h-1.7l0.2-0.2c0.7-0.6,1.1-1.2,1.5-1.7c0.4-0.6,0.7-1.1,0.8-1.7
				c0.1-0.5,0.2-1,0.2-1.5c0-1.1-0.3-2-0.8-2.8c-0.5-0.8-1.3-1.3-2.2-1.7C64.3,57.9,63.3,57.7,62.2,57.7L62.2,57.7z"/>
		</g>
	</g>
</g>
</svg>
